<svg xmlns="http://www.w3.org/2000/svg" viewBox="0 0 1200 800" role="img" aria-labelledby="title desc">
  <title id="title">Pertumbuhan digital usaha</title>
  <desc id="desc">Ilustrasi panel website, grafik, dan pesan untuk artikel pertumbuhan digital.</desc>
  <defs>
    <linearGradient id="bg" x1="0" y1="0" x2="1" y2="1">
      <stop offset="0" stop-color="#071a2e"/>
      <stop offset="1" stop-color="#174d68"/>
    </linearGradient>
    <linearGradient id="chart" x1="0" y1="1" x2="1" y2="0">
      <stop offset="0" stop-color="#18a673"/>
      <stop offset="1" stop-color="#67e8f9"/>
    </linearGradient>
  </defs>
  <rect width="1200" height="800" rx="48" fill="url(#bg)"/>
  <circle cx="1010" cy="120" r="180" fill="#67e8f9" opacity=".08"/>
  <circle cx="155" cy="710" r="220" fill="#18a673" opacity=".1"/>
  <rect x="115" y="130" width="970" height="570" rx="32" fill="#fff" opacity=".98"/>
  <rect x="115" y="130" width="970" height="78" rx="32" fill="#d9e2ec"/>
  <circle cx="170" cy="170" r="12" fill="#f87171"/>
  <circle cx="210" cy="170" r="12" fill="#fbbf24"/>
  <circle cx="250" cy="170" r="12" fill="#34d399"/>
  <rect x="180" y="270" width="570" height="355" rx="22" fill="#f7fafc" stroke="#d9e2ec" stroke-width="6"/>
  <path d="M230 555 330 480l95 35 110-145 155-72" fill="none" stroke="url(#chart)" stroke-width="24" stroke-linecap="round" stroke-linejoin="round"/>
  <circle cx="230" cy="555" r="18" fill="#13795b"/>
  <circle cx="330" cy="480" r="18" fill="#18a673"/>
  <circle cx="425" cy="515" r="18" fill="#18a673"/>
  <circle cx="535" cy="370" r="18" fill="#39c5aa"/>
  <circle cx="690" cy="298" r="18" fill="#67e8f9"/>
  <rect x="815" y="270" width="205" height="115" rx="26" fill="#dff8f1"/>
  <path d="m850 385-18 52 64-52" fill="#dff8f1"/>
  <rect x="850" y="305" width="135" height="16" rx="8" fill="#13795b"/>
  <rect x="850" y="338" width="95" height="14" rx="7" fill="#80b8aa"/>
  <rect x="815" y="465" width="205" height="160" rx="26" fill="#102a43"/>
  <rect x="850" y="505" width="135" height="18" rx="9" fill="#67e8f9"/>
  <rect x="850" y="545" width="100" height="15" rx="8" fill="#9fb3c8"/>
  <rect x="850" y="580" width="75" height="15" rx="8" fill="#526d82"/>
</svg>
