<svg xmlns="http://www.w3.org/2000/svg" viewBox="0 0 1200 800" role="img" aria-labelledby="title desc">
  <title id="title">Etalase digital usaha lokal</title>
  <desc id="desc">Ilustrasi toko, telepon genggam, dan pegunungan untuk artikel usaha lokal.</desc>
  <defs>
    <linearGradient id="sky" x1="0" y1="0" x2="1" y2="1">
      <stop offset="0" stop-color="#dff8f1"/>
      <stop offset="1" stop-color="#c8edf5"/>
    </linearGradient>
    <linearGradient id="screen" x1="0" y1="0" x2="0" y2="1">
      <stop offset="0" stop-color="#102a43"/>
      <stop offset="1" stop-color="#071a2e"/>
    </linearGradient>
  </defs>
  <rect width="1200" height="800" rx="48" fill="url(#sky)"/>
  <circle cx="970" cy="150" r="88" fill="#f8d477" opacity=".8"/>
  <path d="M0 490 210 300l150 135 180-210 210 230 150-130 300 250v225H0Z" fill="#80b8aa" opacity=".45"/>
  <path d="M0 570 230 390l160 135 180-170 185 170 160-110 285 210v175H0Z" fill="#13795b" opacity=".34"/>
  <rect x="160" y="360" width="470" height="320" rx="28" fill="#fff" stroke="#102a43" stroke-width="12"/>
  <path d="M120 390h550l-56-115H176Z" fill="#18a673"/>
  <path d="M176 275h438l56 115H120Z" fill="#fff" opacity=".35"/>
  <path d="M180 390v70c0 32 26 58 58 58s58-26 58-58v-70m0 0v70c0 32 26 58 58 58s58-26 58-58v-70m0 0v70c0 32 26 58 58 58s58-26 58-58v-70m0 0v70c0 32 26 58 58 58s58-26 58-58v-70" fill="none" stroke="#102a43" stroke-width="12"/>
  <rect x="220" y="535" width="155" height="145" rx="12" fill="#dff8f1"/>
  <rect x="430" y="545" width="150" height="85" rx="12" fill="#c8edf5"/>
  <rect x="750" y="170" width="260" height="500" rx="45" fill="url(#screen)" stroke="#fff" stroke-width="14"/>
  <rect x="782" y="230" width="196" height="300" rx="20" fill="#f7fafc"/>
  <rect x="812" y="270" width="136" height="72" rx="14" fill="#18a673"/>
  <rect x="812" y="375" width="136" height="18" rx="9" fill="#9fb3c8"/>
  <rect x="812" y="415" width="105" height="18" rx="9" fill="#d9e2ec"/>
  <rect x="812" y="470" width="136" height="40" rx="20" fill="#102a43"/>
  <circle cx="880" cy="603" r="22" fill="#67e8f9"/>
</svg>
