<svg xmlns="http://www.w3.org/2000/svg" viewBox="0 0 720 480" role="img" aria-labelledby="title desc">
  <title id="title">Dashboard analitik simulasi</title>
  <desc id="desc">Mini dashboard dengan kartu KPI, grafik batang, grafik garis, dan diagram donat.</desc>
  <defs>
    <linearGradient id="bg" x1="0" y1="0" x2="1" y2="1">
      <stop offset="0" stop-color="#071a2e"/>
      <stop offset="1" stop-color="#123e63"/>
    </linearGradient>
    <linearGradient id="bar" x1="0" y1="1" x2="0" y2="0">
      <stop offset="0" stop-color="#0891b2"/>
      <stop offset="1" stop-color="#34d399"/>
    </linearGradient>
  </defs>
  <rect width="720" height="480" rx="28" fill="url(#bg)"/>
  <rect x="36" y="34" width="648" height="412" rx="24" fill="#f8fafc"/>
  <rect x="36" y="34" width="138" height="412" rx="24" fill="#102a43"/>
  <circle cx="76" cy="76" r="16" fill="#67e8f9"/>
  <rect x="102" y="66" width="48" height="9" rx="5" fill="#fff"/>
  <rect x="102" y="84" width="34" height="7" rx="4" fill="#64748b"/>
  <g fill="#ffffff18">
    <rect x="56" y="130" width="98" height="32" rx="8"/>
    <rect x="56" y="178" width="98" height="32" rx="8"/>
    <rect x="56" y="226" width="98" height="32" rx="8"/>
  </g>
  <g>
    <rect x="196" y="60" width="142" height="72" rx="15" fill="#fff" stroke="#d9e2ec"/>
    <rect x="354" y="60" width="142" height="72" rx="15" fill="#fff" stroke="#d9e2ec"/>
    <rect x="512" y="60" width="142" height="72" rx="15" fill="#e0f7f3" stroke="#a7e5d5"/>
    <rect x="216" y="80" width="54" height="8" rx="4" fill="#94a3b8"/>
    <rect x="216" y="99" width="80" height="15" rx="5" fill="#102a43"/>
    <rect x="374" y="80" width="54" height="8" rx="4" fill="#94a3b8"/>
    <rect x="374" y="99" width="58" height="15" rx="5" fill="#102a43"/>
    <rect x="532" y="80" width="54" height="8" rx="4" fill="#13795b"/>
    <rect x="532" y="99" width="72" height="15" rx="5" fill="#13795b"/>
  </g>
  <rect x="196" y="152" width="292" height="252" rx="18" fill="#fff" stroke="#d9e2ec"/>
  <rect x="512" y="152" width="142" height="118" rx="18" fill="#fff" stroke="#d9e2ec"/>
  <rect x="512" y="286" width="142" height="118" rx="18" fill="#fff" stroke="#d9e2ec"/>
  <g fill="url(#bar)">
    <rect x="224" y="307" width="26" height="62" rx="6"/>
    <rect x="264" y="276" width="26" height="93" rx="6"/>
    <rect x="304" y="294" width="26" height="75" rx="6"/>
    <rect x="344" y="239" width="26" height="130" rx="6"/>
    <rect x="384" y="257" width="26" height="112" rx="6"/>
    <rect x="424" y="207" width="26" height="162" rx="6"/>
  </g>
  <path d="M222 266c42-30 72 10 106-35s68 10 112-54" fill="none" stroke="#7c3aed" stroke-width="7" stroke-linecap="round"/>
  <circle cx="440" cy="177" r="8" fill="#7c3aed"/>
  <circle cx="583" cy="211" r="36" fill="none" stroke="#e2e8f0" stroke-width="16"/>
  <path d="M583 175a36 36 0 0 1 31 54" fill="none" stroke="#06b6d4" stroke-width="16"/>
  <path d="M614 229a36 36 0 0 1-50 12" fill="none" stroke="#34d399" stroke-width="16"/>
  <rect x="534" y="311" width="96" height="10" rx="5" fill="#cbd5e1"/>
  <rect x="534" y="337" width="76" height="10" rx="5" fill="#67e8f9"/>
  <rect x="534" y="363" width="56" height="10" rx="5" fill="#34d399"/>
</svg>
