<svg xmlns="http://www.w3.org/2000/svg" width="720" height="480" viewBox="0 0 720 480">
  <rect width="720" height="480" fill="#e5edf5"/>
  <rect x="18" y="18" width="684" height="444" rx="22" fill="#f8fafc"/>
  <rect x="18" y="18" width="142" height="444" rx="22" fill="#071a2e"/>
  <circle cx="52" cy="54" r="15" fill="#22d3ee"/>
  <text x="76" y="60" fill="#fff" font-family="Arial,sans-serif" font-size="15" font-weight="700">Lentera</text>
  <g font-family="Arial,sans-serif" font-size="11">
    <rect x="34" y="92" width="110" height="34" rx="10" fill="#0891b2"/>
    <text x="56" y="113" fill="#fff">Ringkasan</text>
    <text x="56" y="155" fill="#94a3b8">Penjualan</text>
    <text x="56" y="191" fill="#94a3b8">Produk</text>
    <text x="56" y="227" fill="#94a3b8">Inventori</text>
    <text x="56" y="263" fill="#94a3b8">Transaksi</text>
  </g>
  <text x="184" y="48" fill="#0f172a" font-family="Arial,sans-serif" font-size="17" font-weight="700">Dashboard Penjualan</text>
  <text x="574" y="48" fill="#64748b" font-family="Arial,sans-serif" font-size="10">1-30 Juni 2026</text>
  <g>
    <rect x="184" y="70" width="118" height="70" rx="14" fill="#fff" stroke="#dbe4ef"/>
    <rect x="316" y="70" width="118" height="70" rx="14" fill="#fff" stroke="#dbe4ef"/>
    <rect x="448" y="70" width="118" height="70" rx="14" fill="#fff" stroke="#dbe4ef"/>
    <rect x="580" y="70" width="102" height="70" rx="14" fill="#fff" stroke="#dbe4ef"/>
    <text x="198" y="94" fill="#64748b" font-family="Arial,sans-serif" font-size="9">Pendapatan</text>
    <text x="198" y="122" fill="#0f172a" font-family="Arial,sans-serif" font-size="18" font-weight="700">Rp18,4 jt</text>
    <text x="330" y="94" fill="#64748b" font-family="Arial,sans-serif" font-size="9">Pesanan</text>
    <text x="330" y="122" fill="#0f172a" font-family="Arial,sans-serif" font-size="18" font-weight="700">126</text>
    <text x="462" y="94" fill="#64748b" font-family="Arial,sans-serif" font-size="9">Rata-rata</text>
    <text x="462" y="122" fill="#0f172a" font-family="Arial,sans-serif" font-size="18" font-weight="700">Rp146 rb</text>
    <text x="594" y="94" fill="#64748b" font-family="Arial,sans-serif" font-size="9">Pelanggan</text>
    <text x="594" y="122" fill="#0f172a" font-family="Arial,sans-serif" font-size="18" font-weight="700">84</text>
  </g>
  <rect x="184" y="158" width="310" height="152" rx="16" fill="#fff" stroke="#dbe4ef"/>
  <text x="202" y="184" fill="#0f172a" font-family="Arial,sans-serif" font-size="12" font-weight="700">Tren Pendapatan</text>
  <g fill="#22c9a5">
    <rect x="210" y="252" width="25" height="34" rx="5"/>
    <rect x="250" y="230" width="25" height="56" rx="5"/>
    <rect x="290" y="240" width="25" height="46" rx="5"/>
    <rect x="330" y="208" width="25" height="78" rx="5"/>
    <rect x="370" y="220" width="25" height="66" rx="5"/>
    <rect x="410" y="192" width="25" height="94" rx="5"/>
  </g>
  <path d="M210 246 C250 238 265 214 300 222 S355 190 390 200 S430 171 470 177" fill="none" stroke="#7c3aed" stroke-width="5" stroke-linecap="round"/>
  <rect x="510" y="158" width="172" height="152" rx="16" fill="#071a2e"/>
  <text x="528" y="184" fill="#fff" font-family="Arial,sans-serif" font-size="12" font-weight="700">Stok Perlu Perhatian</text>
  <g font-family="Arial,sans-serif" font-size="10">
    <rect x="528" y="202" width="136" height="28" rx="8" fill="#fff" opacity=".1"/>
    <text x="538" y="220" fill="#e2e8f0">Madu Hutan</text><text x="634" y="220" fill="#fbbf24">7</text>
    <rect x="528" y="238" width="136" height="28" rx="8" fill="#fff" opacity=".1"/>
    <text x="538" y="256" fill="#e2e8f0">Hampers</text><text x="634" y="256" fill="#fbbf24">9</text>
    <rect x="528" y="274" width="136" height="22" rx="8" fill="#fff" opacity=".1"/>
    <text x="538" y="289" fill="#e2e8f0">Kopi Susu</text><text x="630" y="289" fill="#67e8f9">18</text>
  </g>
  <rect x="184" y="328" width="498" height="112" rx="16" fill="#fff" stroke="#dbe4ef"/>
  <text x="202" y="354" fill="#0f172a" font-family="Arial,sans-serif" font-size="12" font-weight="700">Transaksi Terakhir</text>
  <g fill="#64748b" font-family="Arial,sans-serif" font-size="9">
    <text x="202" y="378">TRX-1042</text><text x="292" y="378">10.42</text><text x="356" y="378">QRIS</text><text x="594" y="378">Rp116.000</text>
    <line x1="202" y1="388" x2="664" y2="388" stroke="#e2e8f0"/>
    <text x="202" y="410">TRX-1038</text><text x="292" y="410">10.18</text><text x="356" y="410">Tunai</text><text x="602" y="410">Rp86.000</text>
    <line x1="202" y1="420" x2="664" y2="420" stroke="#e2e8f0"/>
  </g>
</svg>
