<svg xmlns="http://www.w3.org/2000/svg" viewBox="0 0 720 480" role="img" aria-labelledby="title desc">
  <title id="title">Demo undangan pernikahan elegan</title>
  <desc id="desc">Kartu undangan krem dan emas dengan inisial pasangan fiktif.</desc>
  <defs>
    <linearGradient id="paper" x1="0" y1="0" x2="1" y2="1">
      <stop offset="0" stop-color="#fffdf8"/>
      <stop offset="1" stop-color="#f4ead8"/>
    </linearGradient>
  </defs>
  <rect width="720" height="480" rx="28" fill="#e9dfcf"/>
  <rect x="82" y="45" width="556" height="390" rx="10" fill="url(#paper)" stroke="#a4834f" stroke-width="4"/>
  <rect x="103" y="66" width="514" height="348" rx="6" fill="none" stroke="#c9ad7d" stroke-width="2"/>
  <g fill="none" stroke="#8aa083" stroke-width="8" stroke-linecap="round">
    <path d="M105 130c70-7 85-42 98-76"/>
    <path d="M122 110c-4-28 8-48 31-62"/>
    <path d="M150 94c28 2 47-11 59-35"/>
    <path d="M615 350c-70 7-85 42-98 76"/>
    <path d="M598 370c4 28-8 48-31 62"/>
    <path d="M570 386c-28-2-47 11-59 35"/>
  </g>
  <g fill="#d7b3a1">
    <circle cx="118" cy="121" r="18"/>
    <circle cx="153" cy="83" r="15"/>
    <circle cx="592" cy="359" r="18"/>
    <circle cx="558" cy="398" r="15"/>
  </g>
  <text x="360" y="152" text-anchor="middle" fill="#8b6f43" font-family="Georgia,serif" font-size="22" font-style="italic">The Wedding of</text>
  <text x="360" y="252" text-anchor="middle" fill="#443629" font-family="Georgia,serif" font-size="76">A &amp; F</text>
  <path d="M275 285h170" stroke="#a4834f" stroke-width="3"/>
  <text x="360" y="333" text-anchor="middle" fill="#6f5a43" font-family="Arial,sans-serif" font-size="20" letter-spacing="4">20 · 12 · 2026</text>
</svg>
